<svg xmlns="http://www.w3.org/2000/svg" viewBox="0 0 720 330" width="720" height="330" font-family="-apple-system,Segoe UI,Helvetica,Arial,sans-serif">
<rect width="720" height="330" rx="10" fill="#ffffff" stroke="#e1e4e8"/>
<text x="56" y="26" font-size="16" font-weight="600" fill="#141a22">LIBERO-Spatial task 0 under LIBERO-Plus robot-init perturbation (frozen SmolVLA)</text>
<text x="56" y="46" font-size="12" fill="#5c6670">10 held-out layouts × fresh policy-noise draws, 3 independent runs, BM-3 per promoted version · whiskers = 95% Wilson CI</text>
<line x1="56" x2="700" y1="260.0" y2="260.0" stroke="#eceef1"/><text x="48" y="264.0" font-size="11" fill="#8a939e" text-anchor="end">0%</text>
<line x1="56" x2="700" y1="211.0" y2="211.0" stroke="#eceef1"/><text x="48" y="215.0" font-size="11" fill="#8a939e" text-anchor="end">25%</text>
<line x1="56" x2="700" y1="162.0" y2="162.0" stroke="#eceef1"/><text x="48" y="166.0" font-size="11" fill="#8a939e" text-anchor="end">50%</text>
<line x1="56" x2="700" y1="113.0" y2="113.0" stroke="#eceef1"/><text x="48" y="117.0" font-size="11" fill="#8a939e" text-anchor="end">75%</text>
<line x1="56" x2="700" y1="64.0" y2="64.0" stroke="#eceef1"/><text x="48" y="68.0" font-size="11" fill="#8a939e" text-anchor="end">100%</text>
<rect x="79.6" y="103.2" width="60.1" height="156.8" rx="3" fill="#8a939e"/>
<line x1="109.7" x2="109.7" y1="128.8" y2="86.0" stroke="#141a22" stroke-width="1.5"/>
<line x1="104.7" x2="114.7" y1="128.8" y2="128.8" stroke="#141a22" stroke-width="1.5"/><line x1="104.7" x2="114.7" y1="86.0" y2="86.0" stroke="#141a22" stroke-width="1.5"/>
<text x="109.7" y="78.0" font-size="13" font-weight="600" fill="#141a22" text-anchor="middle">80%</text>
<text x="109.7" y="278" font-size="12" font-weight="600" fill="#141a22" text-anchor="middle">BM-0</text>
<text x="109.7" y="294" font-size="11" fill="#5c6670" text-anchor="middle">standard start</text>
<text x="109.7" y="310" font-size="11" fill="#8a939e" text-anchor="middle">40/50</text>
<rect x="186.9" y="216.9" width="60.1" height="43.1" rx="3" fill="#c73e3e"/>
<line x1="217.0" x2="217.0" y1="228.4" y2="202.6" stroke="#141a22" stroke-width="1.5"/>
<line x1="212.0" x2="222.0" y1="228.4" y2="228.4" stroke="#141a22" stroke-width="1.5"/><line x1="212.0" x2="222.0" y1="202.6" y2="202.6" stroke="#141a22" stroke-width="1.5"/>
<text x="217.0" y="194.6" font-size="13" font-weight="600" fill="#141a22" text-anchor="middle">22%</text>
<text x="217.0" y="278" font-size="12" font-weight="600" fill="#141a22" text-anchor="middle">BM-1</text>
<text x="217.0" y="294" font-size="11" fill="#5c6670" text-anchor="middle">perturbed start</text>
<text x="217.0" y="310" font-size="11" fill="#8a939e" text-anchor="middle">33/150</text>
<rect x="294.3" y="207.7" width="60.1" height="52.3" rx="3" fill="#c98a12"/>
<line x1="324.3" x2="324.3" y1="220.3" y2="192.8" stroke="#141a22" stroke-width="1.5"/>
<line x1="319.3" x2="329.3" y1="220.3" y2="220.3" stroke="#141a22" stroke-width="1.5"/><line x1="319.3" x2="329.3" y1="192.8" y2="192.8" stroke="#141a22" stroke-width="1.5"/>
<text x="324.3" y="184.8" font-size="13" font-weight="600" fill="#141a22" text-anchor="middle">27%</text>
<text x="324.3" y="278" font-size="12" font-weight="600" fill="#141a22" text-anchor="middle">BM-2</text>
<text x="324.3" y="294" font-size="11" fill="#5c6670" text-anchor="middle">+ untrained layer</text>
<text x="324.3" y="310" font-size="11" fill="#8a939e" text-anchor="middle">40/150</text>
<rect x="401.6" y="188.1" width="60.1" height="71.9" rx="3" fill="#1f8a4c"/>
<line x1="431.7" x2="431.7" y1="202.4" y2="172.5" stroke="#141a22" stroke-width="1.5"/>
<line x1="426.7" x2="436.7" y1="202.4" y2="202.4" stroke="#141a22" stroke-width="1.5"/><line x1="426.7" x2="436.7" y1="172.5" y2="172.5" stroke="#141a22" stroke-width="1.5"/>
<text x="431.7" y="164.5" font-size="13" font-weight="600" fill="#141a22" text-anchor="middle">37%</text>
<text x="431.7" y="278" font-size="12" font-weight="600" fill="#141a22" text-anchor="middle">BM-4</text>
<text x="431.7" y="294" font-size="11" fill="#5c6670" text-anchor="middle">+ hand-set homing</text>
<text x="431.7" y="310" font-size="11" fill="#8a939e" text-anchor="middle">55/150</text>
<rect x="508.9" y="154.2" width="60.1" height="105.8" rx="3" fill="#3b5bdb"/>
<line x1="539.0" x2="539.0" y1="173.2" y2="135.7" stroke="#141a22" stroke-width="1.5"/>
<line x1="534.0" x2="544.0" y1="173.2" y2="173.2" stroke="#141a22" stroke-width="1.5"/><line x1="534.0" x2="544.0" y1="135.7" y2="135.7" stroke="#141a22" stroke-width="1.5"/>
<text x="539.0" y="127.7" font-size="13" font-weight="600" fill="#141a22" text-anchor="middle">54%</text>
<text x="539.0" y="278" font-size="12" font-weight="600" fill="#141a22" text-anchor="middle">BM-3</text>
<text x="539.0" y="294" font-size="11" fill="#5c6670" text-anchor="middle">+ one sleep cycle</text>
<text x="539.0" y="310" font-size="11" fill="#8a939e" text-anchor="middle">54/100</text>
<rect x="616.3" y="122.8" width="60.1" height="137.2" rx="3" fill="#1d3aa8"/>
<line x1="646.3" x2="646.3" y1="149.8" y2="101.4" stroke="#141a22" stroke-width="1.5"/>
<line x1="641.3" x2="651.3" y1="149.8" y2="149.8" stroke="#141a22" stroke-width="1.5"/><line x1="641.3" x2="651.3" y1="101.4" y2="101.4" stroke="#141a22" stroke-width="1.5"/>
<text x="646.3" y="93.4" font-size="13" font-weight="600" fill="#141a22" text-anchor="middle">70%</text>
<text x="646.3" y="278" font-size="12" font-weight="600" fill="#141a22" text-anchor="middle">BM-3.2</text>
<text x="646.3" y="294" font-size="11" fill="#5c6670" text-anchor="middle">+ two sleep cycles</text>
<text x="646.3" y="310" font-size="11" fill="#8a939e" text-anchor="middle">35/50</text>
</svg>