<svg xmlns="http://www.w3.org/2000/svg" viewBox="0 0 720 330" width="720" height="330" font-family="-apple-system,Segoe UI,Helvetica,Arial,sans-serif">
<rect width="720" height="330" rx="10" fill="#ffffff" stroke="#e1e4e8"/>
<text x="56" y="26" font-size="16" font-weight="600" fill="#141a22">Same task, camera tilted 6° instead (LIBERO-Plus camera viewpoint, frozen SmolVLA)</text>
<text x="56" y="46" font-size="12" fill="#5c6670">10 held-out layouts × 5 policy-noise draws, n=50 per arm · the file gained 4 camera-calibration numbers · whiskers = 95% Wilson CI</text>
<line x1="56" x2="700" y1="260.0" y2="260.0" stroke="#eceef1"/><text x="48" y="264.0" font-size="11" fill="#8a939e" text-anchor="end">0%</text>
<line x1="56" x2="700" y1="211.0" y2="211.0" stroke="#eceef1"/><text x="48" y="215.0" font-size="11" fill="#8a939e" text-anchor="end">25%</text>
<line x1="56" x2="700" y1="162.0" y2="162.0" stroke="#eceef1"/><text x="48" y="166.0" font-size="11" fill="#8a939e" text-anchor="end">50%</text>
<line x1="56" x2="700" y1="113.0" y2="113.0" stroke="#eceef1"/><text x="48" y="117.0" font-size="11" fill="#8a939e" text-anchor="end">75%</text>
<line x1="56" x2="700" y1="64.0" y2="64.0" stroke="#eceef1"/><text x="48" y="68.0" font-size="11" fill="#8a939e" text-anchor="end">100%</text>
<rect x="84.3" y="87.5" width="72.1" height="172.5" rx="3" fill="#8a939e"/>
<line x1="120.4" x2="120.4" y1="110.7" y2="75.0" stroke="#141a22" stroke-width="1.5"/>
<line x1="115.4" x2="125.4" y1="110.7" y2="110.7" stroke="#141a22" stroke-width="1.5"/><line x1="115.4" x2="125.4" y1="75.0" y2="75.0" stroke="#141a22" stroke-width="1.5"/>
<text x="120.4" y="67.0" font-size="13" font-weight="600" fill="#141a22" text-anchor="middle">88%</text>
<text x="120.4" y="278" font-size="12" font-weight="600" fill="#141a22" text-anchor="middle">BM-0</text>
<text x="120.4" y="294" font-size="11" fill="#5c6670" text-anchor="middle">stock camera</text>
<text x="120.4" y="310" font-size="11" fill="#8a939e" text-anchor="middle">44/50</text>
<rect x="213.1" y="229.2" width="72.1" height="30.8" rx="3" fill="#c73e3e"/>
<line x1="249.2" x2="249.2" y1="242.3" y2="209.1" stroke="#141a22" stroke-width="1.5"/>
<line x1="244.2" x2="254.2" y1="242.3" y2="242.3" stroke="#141a22" stroke-width="1.5"/><line x1="244.2" x2="254.2" y1="209.1" y2="209.1" stroke="#141a22" stroke-width="1.5"/>
<text x="249.2" y="201.1" font-size="13" font-weight="600" fill="#141a22" text-anchor="middle">16%</text>
<text x="249.2" y="278" font-size="12" font-weight="600" fill="#141a22" text-anchor="middle">BM-1</text>
<text x="249.2" y="294" font-size="11" fill="#5c6670" text-anchor="middle">camera tilted 6°</text>
<text x="249.2" y="310" font-size="11" fill="#8a939e" text-anchor="middle">11/70</text>
<rect x="341.9" y="246.0" width="72.1" height="14.0" rx="3" fill="#c98a12"/>
<line x1="378.0" x2="378.0" y1="253.9" y2="229.3" stroke="#141a22" stroke-width="1.5"/>
<line x1="373.0" x2="383.0" y1="253.9" y2="253.9" stroke="#141a22" stroke-width="1.5"/><line x1="373.0" x2="383.0" y1="229.3" y2="229.3" stroke="#141a22" stroke-width="1.5"/>
<text x="378.0" y="221.3" font-size="13" font-weight="600" fill="#141a22" text-anchor="middle">7%</text>
<text x="378.0" y="278" font-size="12" font-weight="600" fill="#141a22" text-anchor="middle">BM-2</text>
<text x="378.0" y="294" font-size="11" fill="#5c6670" text-anchor="middle">+ untrained layer</text>
<text x="378.0" y="310" font-size="11" fill="#8a939e" text-anchor="middle">5/70</text>
<rect x="470.7" y="150.8" width="72.1" height="109.2" rx="3" fill="#3b5bdb"/>
<line x1="506.8" x2="506.8" y1="173.6" y2="129.2" stroke="#141a22" stroke-width="1.5"/>
<line x1="501.8" x2="511.8" y1="173.6" y2="173.6" stroke="#141a22" stroke-width="1.5"/><line x1="501.8" x2="511.8" y1="129.2" y2="129.2" stroke="#141a22" stroke-width="1.5"/>
<text x="506.8" y="121.2" font-size="13" font-weight="600" fill="#141a22" text-anchor="middle">56%</text>
<text x="506.8" y="278" font-size="12" font-weight="600" fill="#141a22" text-anchor="middle">BM-3</text>
<text x="506.8" y="294" font-size="11" fill="#5c6670" text-anchor="middle">+ one sleep cycle</text>
<text x="506.8" y="310" font-size="11" fill="#8a939e" text-anchor="middle">39/70</text>
<rect x="599.5" y="228.6" width="72.1" height="31.4" rx="3" fill="#8fa0e6"/>
<line x1="635.6" x2="635.6" y1="243.7" y2="204.1" stroke="#141a22" stroke-width="1.5"/>
<line x1="630.6" x2="640.6" y1="243.7" y2="243.7" stroke="#141a22" stroke-width="1.5"/><line x1="630.6" x2="640.6" y1="204.1" y2="204.1" stroke="#141a22" stroke-width="1.5"/>
<text x="635.6" y="196.1" font-size="13" font-weight="600" fill="#141a22" text-anchor="middle">16%</text>
<text x="635.6" y="278" font-size="12" font-weight="600" fill="#141a22" text-anchor="middle">BM-3</text>
<text x="635.6" y="294" font-size="11" fill="#5c6670" text-anchor="middle">+ sleep, calibration frozen</text>
<text x="635.6" y="310" font-size="11" fill="#8a939e" text-anchor="middle">8/50</text>
</svg>